<?xml version="1.0" encoding="utf-8"?>
<!-- Generator: Adobe Illustrator 16.0.0, SVG Export Plug-In . SVG Version: 6.00 Build 0)  -->
<!DOCTYPE svg PUBLIC "-//W3C//DTD SVG 1.1//EN" "http://www.w3.org/Graphics/SVG/1.1/DTD/svg11.dtd">
<svg version="1.1" id="Ebene_1" xmlns="http://www.w3.org/2000/svg" xmlns:xlink="http://www.w3.org/1999/xlink" x="0px" y="0px"
	 width="32px" height="32px" viewBox="0 0 32 32" enable-background="new 0 0 32 32" xml:space="preserve">
<path d="M30.035,25.68H1.965c-1.271,0-1.936-0.666-1.936-1.938V8.257c0-1.271,0.665-1.936,1.936-1.936h28.07
	c1.27,0,1.936,0.666,1.936,1.936v15.485C31.971,25.014,31.305,25.68,30.035,25.68 M7.29,21.322v-6.29l3.386,4.354l3.388-4.354v6.29
	h2.904V10.677h-2.904l-3.388,4.356L7.29,10.677H4.385v10.646H7.29z M28.098,16h-2.902v-5.324h-2.904V16h-2.904l4.355,5.322
	L28.098,16z"/>
</svg>
